<?xml version="1.0"?>
<svg xmlns="http://www.w3.org/2000/svg" xmlns:xlink="http://www.w3.org/1999/xlink" xmlns:svgjs="http://svgjs.com/svgjs" version="1.1" width="512" height="512" x="0" y="0" viewBox="0 0 512.007 512.007" style="enable-background:new 0 0 512 512" xml:space="preserve" class=""><g><g xmlns="http://www.w3.org/2000/svg"><path d="m226.011 306c0 44.112 35.888 80 80 80s80-35.888 80-80-35.888-80-80-80-80 35.888-80 80zm140 0c0 33.084-26.916 60-60 60s-60-26.916-60-60 26.916-60 60-60 60 26.916 60 60z" fill="#ffffff" data-original="#000000" style="" class=""/><path d="m10.011 486h306c5.523 0 10-4.478 10-10v-51.664c14.428-2.426 28.262-7.479 40.932-14.981l93.856 93.857c11.727 11.726 30.696 11.727 42.424 0 11.696-11.696 11.696-30.728 0-42.424l-93.857-93.856c10.914-18.432 16.645-39.329 16.645-60.932 0-59.354-43.319-108.774-100-118.324 0-10.279 0-70.395 0-77.676 0-60.654-49.346-110-110-110-9.346 0-195.63 0-206 0-5.523 0-10 4.478-10 10v466c0 5.522 4.477 10 10 10zm396-180c0 20.338-6.097 39.924-17.63 56.641-2.741 3.973-2.253 9.337 1.16 12.75l99.54 99.54c3.91 3.909 3.911 10.228 0 14.139-3.91 3.91-10.228 3.91-14.139 0l-99.541-99.54c-3.395-3.396-8.761-3.914-12.75-1.159-16.716 11.533-36.302 17.63-56.64 17.63-55.14 0-100-44.859-100-100s44.86-100 100-100 100 44.858 100 99.999zm-386-286h176c16.542 0 30 13.458 30 30v40c0 5.522 4.477 10 10 10h40c16.542 0 30 13.458 30 30v56c-66.168 0-120 53.832-120 120s53.832 120 120 120v40h-286v-446z" fill="#ffffff" data-original="#000000" style="" class=""/><path d="m136.011 266h-66c-5.523 0-10 4.478-10 10s4.477 10 10 10h66c5.523 0 10-4.478 10-10s-4.477-10-10-10z" fill="#ffffff" data-original="#000000" style="" class=""/><path d="m136.011 206h-66c-5.523 0-10 4.478-10 10s4.477 10 10 10h66c5.523 0 10-4.478 10-10s-4.477-10-10-10z" fill="#ffffff" data-original="#000000" style="" class=""/><path d="m136.011 326h-66c-5.523 0-10 4.478-10 10s4.477 10 10 10h66c5.523 0 10-4.478 10-10s-4.477-10-10-10z" fill="#ffffff" data-original="#000000" style="" class=""/><path d="m136.011 386h-66c-5.523 0-10 4.478-10 10s4.477 10 10 10h66c5.523 0 10-4.478 10-10s-4.477-10-10-10z" fill="#ffffff" data-original="#000000" style="" class=""/><path d="m70.011 166h146c5.523 0 10-4.478 10-10s-4.477-10-10-10h-146c-5.523 0-10 4.478-10 10s4.477 10 10 10z" fill="#ffffff" data-original="#000000" style="" class=""/></g></g></svg>
