<?xml version="1.0"?>
<svg xmlns="http://www.w3.org/2000/svg" xmlns:xlink="http://www.w3.org/1999/xlink" xmlns:svgjs="http://svgjs.com/svgjs" version="1.1" width="512" height="512" x="0" y="0" viewBox="0 0 512 512" style="enable-background:new 0 0 512 512" xml:space="preserve" class=""><g>
<rect xmlns="http://www.w3.org/2000/svg" id="SVGCleanerId_0" x="18.608" y="121.472" style="" width="474.8" height="340.312" fill="#06b319" data-original="#ffffff" class=""/>
<polyline xmlns="http://www.w3.org/2000/svg" style="" points="16,159.624 16,52.872 194.336,52.872 263.408,120.696 " fill="#06b319" data-original="#38c6b4" class=""/>
<polygon xmlns="http://www.w3.org/2000/svg" style="" points="32,159.624 0,159.624 0,36.872 200.872,36.872 274.616,109.272 252.192,132.112   187.8,68.872 32,68.872 " fill="#ffffff" data-original="#222077" class=""/>
<rect xmlns="http://www.w3.org/2000/svg" id="SVGCleanerId_1" x="26.768" y="116.168" style="" width="458.48" height="48" fill="#dbdbdb" data-original="#dbdbdb" class=""/>
<path xmlns="http://www.w3.org/2000/svg" id="SVGCleanerId_2" style="" d="M480,140.136v302.992H32V140.136H480 M512,108.136H0v366.992h512V108.136  L512,108.136z" fill="#ffffff" data-original="#222077" class=""/>
<ellipse xmlns="http://www.w3.org/2000/svg" style="" cx="251.256" cy="289.2" rx="83.688" ry="80.944" fill="#06b319" data-original="#ffffff" class=""/>
<path xmlns="http://www.w3.org/2000/svg" id="SVGCleanerId_3" style="" d="M251.256,386.112c-54.968,0-99.688-43.496-99.688-96.944  s44.72-96.944,99.688-96.944s99.688,43.488,99.688,96.944S306.224,386.112,251.256,386.112z M251.256,224.224  c-37.32,0-67.688,29.136-67.688,64.944c0,35.816,30.368,64.944,67.688,64.944s67.688-29.136,67.688-64.944  C318.944,253.352,288.576,224.224,251.256,224.224z" fill="#ffffff" data-original="#222077" class=""/>
<rect xmlns="http://www.w3.org/2000/svg" id="SVGCleanerId_4" x="308.247" y="344.083" transform="matrix(-0.7385 0.6743 -0.6743 -0.7385 820.0609 442.3421)" style="" width="32.001" height="72.242" fill="#ffffff" data-original="#222077" class=""/>
<g xmlns="http://www.w3.org/2000/svg">
	<rect id="SVGCleanerId_0_1_" x="18.608" y="121.472" style="" width="474.8" height="340.312" fill="#06b319" data-original="#ffffff" class=""/>
</g>
<polyline xmlns="http://www.w3.org/2000/svg" style="" points="16,159.624 16,52.872 194.336,52.872 263.408,120.696 " fill="#06b319" data-original="#38c6b4" class=""/>
<polygon xmlns="http://www.w3.org/2000/svg" style="" points="32,159.624 0,159.624 0,36.872 200.872,36.872 274.616,109.272 252.192,132.112   187.8,68.872 32,68.872 " fill="#ffffff" data-original="#222077" class=""/>
<g xmlns="http://www.w3.org/2000/svg">
	<rect id="SVGCleanerId_1_1_" x="26.768" y="116.168" style="" width="458.48" height="48" fill="#dbdbdb" data-original="#dbdbdb" class=""/>
</g>
<g xmlns="http://www.w3.org/2000/svg">
	<path id="SVGCleanerId_2_1_" style="" d="M480,140.136v302.992H32V140.136H480 M512,108.136H0v366.992h512V108.136   L512,108.136z" fill="#ffffff" data-original="#222077" class=""/>
</g>
<ellipse xmlns="http://www.w3.org/2000/svg" style="" cx="251.256" cy="289.2" rx="83.688" ry="80.944" fill="#06b319" data-original="#ffffff" class=""/>
<g xmlns="http://www.w3.org/2000/svg">
	<path id="SVGCleanerId_3_1_" style="" d="M251.256,386.112c-54.968,0-99.688-43.496-99.688-96.944   s44.72-96.944,99.688-96.944s99.688,43.488,99.688,96.944S306.224,386.112,251.256,386.112z M251.256,224.224   c-37.32,0-67.688,29.136-67.688,64.944c0,35.816,30.368,64.944,67.688,64.944s67.688-29.136,67.688-64.944   C318.944,253.352,288.576,224.224,251.256,224.224z" fill="#ffffff" data-original="#222077" class=""/>
</g>
<g xmlns="http://www.w3.org/2000/svg">
	
		<rect id="SVGCleanerId_4_1_" x="308.247" y="344.083" transform="matrix(-0.7385 0.6743 -0.6743 -0.7385 820.0609 442.3421)" style="" width="32.001" height="72.242" fill="#ffffff" data-original="#222077" class=""/>
</g>
<g xmlns="http://www.w3.org/2000/svg">
</g>
<g xmlns="http://www.w3.org/2000/svg">
</g>
<g xmlns="http://www.w3.org/2000/svg">
</g>
<g xmlns="http://www.w3.org/2000/svg">
</g>
<g xmlns="http://www.w3.org/2000/svg">
</g>
<g xmlns="http://www.w3.org/2000/svg">
</g>
<g xmlns="http://www.w3.org/2000/svg">
</g>
<g xmlns="http://www.w3.org/2000/svg">
</g>
<g xmlns="http://www.w3.org/2000/svg">
</g>
<g xmlns="http://www.w3.org/2000/svg">
</g>
<g xmlns="http://www.w3.org/2000/svg">
</g>
<g xmlns="http://www.w3.org/2000/svg">
</g>
<g xmlns="http://www.w3.org/2000/svg">
</g>
<g xmlns="http://www.w3.org/2000/svg">
</g>
<g xmlns="http://www.w3.org/2000/svg">
</g>
</g></svg>
