<?xml version="1.0"?>
<svg xmlns="http://www.w3.org/2000/svg" xmlns:xlink="http://www.w3.org/1999/xlink" xmlns:svgjs="http://svgjs.com/svgjs" version="1.1" width="512" height="512" x="0" y="0" viewBox="0 0 503.606 503.606" style="enable-background:new 0 0 512 512" xml:space="preserve" class=""><g>
<g xmlns="http://www.w3.org/2000/svg">
	<g>
		<path d="M495.406,144.632c-5.224-4.771-12.214-7.124-19.259-6.484l-42.701,3.881c-17.369,1.615-34.553-4.605-46.865-16.963    l-27.209-19.246c-1.537-1.076-3.145-2.048-4.811-2.91l-22.18-14.959c-18.013-12.176-39.262-18.671-61.004-18.647h-73.246    c-11.228-0.009-21.714,5.604-27.935,14.951l-7.18,10.77l-49.291,6.164c-8.463,1.06-17.039,0.821-25.43-0.709L29.684,89.824    c-7.346-1.336-14.906,0.658-20.639,5.442C3.313,100.05,0,107.132,0,114.598v147.754c0.008,9.708,5.59,18.549,14.352,22.729    l-0.607,1.82c-4.069,12.062-0.923,25.388,8.111,34.357l44.934,44.934c8.3,8.282,18.406,14.529,29.525,18.25l63.307,21.102    c14.919,4.973,31.022,5.141,46.041,0.479l15.262,14.459c9.315,8.867,21.681,13.815,34.541,13.82    c4.151-0.002,8.285-0.513,12.311-1.52l59.48-14.873c13.608-3.381,26.353-9.585,37.41-18.209l31.057-24.156    c14.966-11.725,22.065-30.872,18.36-49.519l68.419-24.37c12.775-5.063,21.148-17.431,21.102-31.172V163.225    C503.606,156.151,500.63,149.403,495.406,144.632z M164.93,389.619l-63.307-21.102c-8.647-2.895-16.507-7.753-22.963-14.193    l-44.934-44.934c-4.516-4.486-6.088-11.149-4.053-17.18l1.558-4.676h42.671c4.297-0.005,8.43,1.643,11.545,4.602l105.385,99.838    C182.131,393.133,173.28,392.328,164.93,389.619z M385.422,362.291l-2.374,1.847l-65.343-106.182    c-1.568-2.559-4.384-4.086-7.385-4.004s-5.729,1.761-7.155,4.402c-1.426,2.641-1.333,5.843,0.245,8.397l66.31,107.753    l-15.355,11.943c-6.45,5.001-13.599,9.027-21.219,11.95l-48.966-81.609c-2.386-3.975-7.542-5.263-11.516-2.877    c-3.975,2.386-5.263,7.542-2.877,11.516l46.72,77.867l-36.014,9.006l-38.645-54.102c-1.742-2.441-4.655-3.767-7.64-3.478    c-2.985,0.289-5.589,2.148-6.832,4.877c-1.243,2.729-0.935,5.914,0.808,8.355l34.774,48.684    c-10.918,2.509-22.367-0.622-30.487-8.34L96.992,279.947c-6.229-5.919-14.497-9.214-23.09-9.201H25.18    c-4.633-0.006-8.387-3.76-8.393-8.393V114.598c-0.016-2.491,1.091-4.857,3.012-6.443c1.899-1.622,4.433-2.29,6.885-1.816    l58.607,10.656c10.069,1.836,20.36,2.122,30.516,0.848l36.028-4.504l-4.717,7.831c-8.278,13.904-5.431,31.738,6.765,42.373    c12.195,10.635,30.251,11.03,42.899,0.938l24.645-19.639h29.195c4.112-0.003,8.081,1.507,11.152,4.242l65.422,58.148    c1.309,1.165,2.429,2.527,3.32,4.037l63.234,107.496C402.259,333.314,398.701,351.912,385.422,362.291z M486.819,270.483    c0.05,6.763-4.003,12.883-10.25,15.475l-68.335,24.335l-0.017-0.035l-63.229-107.496c-1.777-3.021-4.016-5.745-6.635-8.074    l-65.422-58.152c-6.146-5.464-14.084-8.482-22.307-8.479h-23.738v-8.394c0-4.636-3.758-8.393-8.393-8.393    c-4.636,0-8.393,3.758-8.393,8.393v12.742l-23.775,18.947c-5.977,4.755-14.41,4.88-20.525,0.303    c-6.85-5.075-8.714-14.528-4.303-21.824l13.627-22.623c0.034-0.056,0.031-0.12,0.063-0.176l8.978-13.467    c3.11-4.674,8.353-7.48,13.967-7.476h73.246c18.397-0.02,36.377,5.476,51.619,15.779l22.606,15.246l0.939,0.549    c1.114,0.556,2.185,1.195,3.205,1.91l25.5,17.889c15.807,15.532,37.65,23.318,59.717,21.287l42.701-3.881    c2.349-0.215,4.679,0.569,6.421,2.159c1.742,1.59,2.734,3.839,2.735,6.198V270.483z" fill="#636363" data-original="#000000" style="" class=""/>
	</g>
</g>
<g xmlns="http://www.w3.org/2000/svg">
</g>
<g xmlns="http://www.w3.org/2000/svg">
</g>
<g xmlns="http://www.w3.org/2000/svg">
</g>
<g xmlns="http://www.w3.org/2000/svg">
</g>
<g xmlns="http://www.w3.org/2000/svg">
</g>
<g xmlns="http://www.w3.org/2000/svg">
</g>
<g xmlns="http://www.w3.org/2000/svg">
</g>
<g xmlns="http://www.w3.org/2000/svg">
</g>
<g xmlns="http://www.w3.org/2000/svg">
</g>
<g xmlns="http://www.w3.org/2000/svg">
</g>
<g xmlns="http://www.w3.org/2000/svg">
</g>
<g xmlns="http://www.w3.org/2000/svg">
</g>
<g xmlns="http://www.w3.org/2000/svg">
</g>
<g xmlns="http://www.w3.org/2000/svg">
</g>
<g xmlns="http://www.w3.org/2000/svg">
</g>
</g></svg>
