<?xml version="1.0"?>
<svg xmlns="http://www.w3.org/2000/svg" xmlns:xlink="http://www.w3.org/1999/xlink" xmlns:svgjs="http://svgjs.com/svgjs" version="1.1" width="512" height="512" x="0" y="0" viewBox="0 0 150 150" style="enable-background:new 0 0 512 512" xml:space="preserve" class=""><g><path xmlns="http://www.w3.org/2000/svg" d="m37.809 109.278a.957.957 0 0 1 -.224-.026l-26.808-6.13a1 1 0 0 1 -.751-1.2l19.383-84.714a1 1 0 0 1 1.2-.751l31.57 7.223a1 1 0 1 1 -.446 1.949l-30.6-7-18.933 82.771 25.831 5.9a1 1 0 0 1 -.222 1.975z" fill="#ffffff" data-original="#000000" style="" class=""/><path xmlns="http://www.w3.org/2000/svg" d="m83.7 119.782a.964.964 0 0 1 -.224-.026l-31.576-7.223a1 1 0 0 1 .446-1.95l30.6 7 1.432-6.249a1 1 0 1 1 1.949.446l-1.655 7.224a1 1 0 0 1 -.972.778z" fill="#ffffff" data-original="#000000" style="" class=""/><path xmlns="http://www.w3.org/2000/svg" d="m133.052 133.569q-.144 0-.288-.006a6.977 6.977 0 0 1 -5.025-2.461l-12.886-15.265a1 1 0 0 1 1.528-1.29l12.886 15.264a4.95 4.95 0 1 0 6.975-6.975l-15.264-12.886a1 1 0 0 1 1.29-1.528l15.264 12.886a6.948 6.948 0 0 1 -4.48 12.261z" fill="#ffffff" data-original="#000000" style="" class=""/><path xmlns="http://www.w3.org/2000/svg" d="m90.828 112.56h-53.02a1 1 0 0 1 -1-1v-86.91a1 1 0 0 1 1-1h74.57a1 1 0 0 1 1 1v56.32a1 1 0 0 1 -1.365.931 18.261 18.261 0 0 0 -20.432 29 1 1 0 0 1 -.753 1.658zm-52.02-2h49.962a20.264 20.264 0 0 1 22.608-31v-53.91h-72.57z" fill="#ffffff" data-original="#000000" style="" class=""/><path xmlns="http://www.w3.org/2000/svg" d="m103.522 35.019h-12.374a1 1 0 0 1 0-2h12.374a1 1 0 0 1 0 2z" fill="#ffffff" data-original="#000000" style="" class=""/><path xmlns="http://www.w3.org/2000/svg" d="m84.669 35.019h-18.853a1 1 0 0 1 0-2h18.853a1 1 0 0 1 0 2z" fill="#ffffff" data-original="#000000" style="" class=""/><path xmlns="http://www.w3.org/2000/svg" d="m57.915 35.019h-11.245a1 1 0 0 1 0-2h11.245a1 1 0 0 1 0 2z" fill="#ffffff" data-original="#000000" style="" class=""/><path xmlns="http://www.w3.org/2000/svg" d="m103.522 48.763h-12.374a1 1 0 0 1 0-2h12.374a1 1 0 0 1 0 2z" fill="#ffffff" data-original="#000000" style="" class=""/><path xmlns="http://www.w3.org/2000/svg" d="m84.669 48.763h-38a1 1 0 0 1 0-2h38a1 1 0 0 1 0 2z" fill="#ffffff" data-original="#000000" style="" class=""/><path xmlns="http://www.w3.org/2000/svg" d="m103.522 62.508h-12.374a1 1 0 0 1 0-2h12.374a1 1 0 0 1 0 2z" fill="#ffffff" data-original="#000000" style="" class=""/><path xmlns="http://www.w3.org/2000/svg" d="m84.669 62.508h-18.853a1 1 0 0 1 0-2h18.853a1 1 0 0 1 0 2z" fill="#ffffff" data-original="#000000" style="" class=""/><path xmlns="http://www.w3.org/2000/svg" d="m57.915 62.508h-11.245a1 1 0 0 1 0-2h11.245a1 1 0 0 1 0 2z" fill="#ffffff" data-original="#000000" style="" class=""/><path xmlns="http://www.w3.org/2000/svg" d="m103.522 76.253h-56.852a1 1 0 0 1 0-2h56.852a1 1 0 0 1 0 2z" fill="#ffffff" data-original="#000000" style="" class=""/><path xmlns="http://www.w3.org/2000/svg" d="m84.669 90h-18.853a1 1 0 0 1 0-2h18.853a1 1 0 0 1 0 2z" fill="#ffffff" data-original="#000000" style="" class=""/><path xmlns="http://www.w3.org/2000/svg" d="m57.915 90h-11.245a1 1 0 0 1 0-2h11.245a1 1 0 1 1 0 2z" fill="#ffffff" data-original="#000000" style="" class=""/><path xmlns="http://www.w3.org/2000/svg" d="m75.242 103.742h-11.475a1 1 0 0 1 0-2h11.475a1 1 0 0 1 0 2z" fill="#ffffff" data-original="#000000" style="" class=""/><path xmlns="http://www.w3.org/2000/svg" d="m55.866 103.742h-9.2a1 1 0 0 1 0-2h9.2a1 1 0 0 1 0 2z" fill="#ffffff" data-original="#000000" style="" class=""/><path xmlns="http://www.w3.org/2000/svg" d="m105.334 119.149a20.19 20.19 0 0 1 -14.323-5.922c-.33-.329-.648-.669-.945-1.02a20.255 20.255 0 1 1 29.6 1.02 20.22 20.22 0 0 1 -14.332 5.922zm.013-38.509a18.262 18.262 0 0 0 -13.766 30.26c.272.321.553.621.844.911a18.263 18.263 0 1 0 12.922-31.171z" fill="#ffffff" data-original="#000000" style="" class=""/></g></svg>
