<?xml version="1.0"?>
<svg xmlns="http://www.w3.org/2000/svg" xmlns:xlink="http://www.w3.org/1999/xlink" xmlns:svgjs="http://svgjs.com/svgjs" version="1.1" width="512" height="512" x="0" y="0" viewBox="0 0 482 482.43838" style="enable-background:new 0 0 512 512" xml:space="preserve" class=""><g transform="matrix(1,2.4492935982947064e-16,-2.4492935982947064e-16,1,5.684341886080802e-14,-5.684341886080802e-14)"><path xmlns="http://www.w3.org/2000/svg" d="m460.71875 19.066406-22.210938-17.367187c-1.695312-1.328125-3.851562-1.914063-5.988281-1.6289065-2.132812.2851565-4.058593 1.4179685-5.347656 3.1406255l-21.902344 29.320312-3.601562-2.746094c-1.6875-1.285156-3.816407-1.847656-5.917969-1.5625-2.089844.230469-3.996094 1.289063-5.292969 2.9375l-181.71875 238.273438h-200.089843c-4.558594.09375-8.25 3.722656-8.429688 8.277344v197.15625c0 4.417968 4.011719 7.566406 8.429688 7.566406h239.070312c2.023438.078125 3.988281-.695313 5.414062-2.136719 1.425782-1.4375 2.183594-3.40625 2.085938-5.429687v-153.035157l164.074219-214.945312 11.953125 8.789062c.945312.644531 1.609375 1.625 1.859375 2.738281.074219.300782.039062.613282-.101563.890626l-51.148437 67.128906c-2.679688 3.515625-1.996094 8.539062 1.519531 11.21875 3.519531 2.679687 8.539062 2 11.21875-1.519532l51.167969-67.132812c2.761719-3.65625 3.933593-8.269531 3.25-12.800781-.816407-5.347657-3.722657-10.148438-8.082031-13.355469l-11.691407-8.6875 16.054688-21.0625c2.679687-3.515625 2.003906-8.535156-1.511719-11.210938l-3.644531-2.78125 22.015625-28.886718c2.652344-3.484375 2.015625-8.453125-1.433594-11.148438zm-62.390625 28.292969 29.390625 22.398437-185.144531 242.917969-29.390625-22.402343zm-191.992187 257.8125 23.6875 18.054687-35.675782 22.242188zm-190.117188 161.261719v-181h180.328125l-.9375 1.367187c-.585937.792969-1.03125 1.683594-1.304687 2.632813l-21.316407 71.679687c-.71875 2.421875-.253906 5.042969 1.253907 7.074219 1.507812 2.027344 3.886718 3.226562 6.414062 3.230469 1.417969 0 2.804688-.417969 3.984375-1.207031l54.578125-34.167969v130.390625zm411.191406-417.027344-9.414062-7.171875 17.097656-22.890625 9.542969 7.460938zm0 0" fill="#636363" data-original="#000000" style="" class=""/><path xmlns="http://www.w3.org/2000/svg" d="m192.917969 396.832031c-.273438-.097656-6.855469-2.566406-13.722657-4.910156-13.449218-4.59375-18.441406-6.023437-22.550781-2.109375-.679687.578125-4.644531 3.78125-27.453125 21.441406-1.277344.984375-2.894531 1.417969-4.492187 1.195313-1.597657-.21875-3.039063-1.074219-4-2.371094l-3.101563-4.183594c-1.679687-2.269531-3.738281-4.242187-6.078125-5.824219l-7.289062-4.929687c-10.792969-7.222656-25.316407-5.03125-33.5 5.054687l-3.355469 4.398438c-1.304688 1.714844-3.304688 2.757812-5.457031 2.839844h-10.796875c-4.421875 0-8 3.582031-8 8 0 4.417968 3.578125 8 8 8h10.796875c7.007812-.070313 13.605469-3.3125 17.933593-8.820313l3.355469-4.292969c2.933594-3.640624 8.160157-4.457031 12.0625-1.875l7.289063 4.902344c.84375.5625 1.582031 1.269532 2.191406 2.085938l3.097656 4.171875c3.507813 4.769531 8.800782 7.910156 14.667969 8.703125 1.015625.136718 2.039063.207031 3.0625.207031 4.859375 0 9.582031-1.621094 13.414063-4.609375 15.136718-11.71875 22.15625-17.207031 25.507812-19.871094 4.699219 1.292969 14.589844 4.699219 22.808594 7.78125 4.136718 1.550782 8.746094-.546875 10.296875-4.6875 1.550781-4.136718-.546875-8.746094-4.6875-10.296875zm0 0" fill="#636363" data-original="#000000" style="" class=""/></g></svg>
